<svg xmlns="http://www.w3.org/2000/svg" xmlns:xlink="http://www.w3.org/1999/xlink" width="128px" height="91px" viewBox="0 0 128 91" version="1.1">
<g id="surface1">
<path style=" stroke:none;fill-rule:nonzero;fill:rgb(0%,0%,0%);fill-opacity:1;" d="M 64 17.984375 C 48.894531 17.984375 36.648438 30.304688 36.648438 45.5 C 36.648438 60.695312 48.894531 73.015625 64 73.015625 C 79.105469 73.015625 91.351562 60.695312 91.351562 45.5 C 91.351562 30.304688 79.105469 17.984375 64 17.984375 Z M 79.609375 35.804688 C 80.644531 37.484375 81.414062 39.339844 81.871094 41.320312 C 81.898438 41.445312 81.859375 41.578125 81.769531 41.667969 L 79.585938 43.867188 C 79.253906 44.199219 78.714844 44.199219 78.382812 43.867188 L 75.003906 40.46875 C 74.820312 40.28125 74.820312 39.976562 75.003906 39.789062 L 79.03125 35.738281 C 79.199219 35.566406 79.484375 35.601562 79.609375 35.804688 Z M 74.71875 30.523438 C 76.207031 31.601562 77.527344 32.902344 78.636719 34.375 C 78.746094 34.523438 78.730469 34.730469 78.597656 34.863281 L 74.355469 39.132812 C 74.171875 39.324219 73.867188 39.324219 73.679688 39.132812 L 70.039062 35.472656 C 69.855469 35.285156 69.855469 34.980469 70.039062 34.792969 L 74.242188 30.566406 C 74.367188 30.433594 74.570312 30.417969 74.71875 30.523438 Z M 67.328125 27.519531 C 67.414062 27.429688 67.542969 27.390625 67.664062 27.414062 C 69.667969 27.820312 71.550781 28.558594 73.261719 29.566406 C 73.472656 29.691406 73.507812 29.984375 73.335938 30.15625 L 64.632812 38.914062 C 64.300781 39.25 63.761719 39.25 63.429688 38.914062 L 60.316406 35.78125 C 59.984375 35.449219 59.984375 34.90625 60.316406 34.570312 Z M 54.765625 29.554688 C 56.503906 28.53125 58.421875 27.789062 60.464844 27.390625 C 60.585938 27.363281 60.710938 27.40625 60.800781 27.492188 L 63.09375 29.800781 C 63.277344 29.988281 63.277344 30.292969 63.09375 30.480469 L 59.390625 34.203125 C 59.207031 34.386719 58.902344 34.386719 58.714844 34.203125 L 54.6875 30.144531 C 54.511719 29.96875 54.550781 29.679688 54.765625 29.554688 Z M 49.347656 34.398438 C 50.46875 32.902344 51.8125 31.582031 53.328125 30.492188 C 53.476562 30.386719 53.679688 30.402344 53.804688 30.53125 L 67.761719 44.574219 C 68.09375 44.90625 68.09375 45.449219 67.761719 45.78125 L 64.589844 48.976562 C 64.257812 49.308594 63.71875 49.308594 63.386719 48.976562 L 49.386719 34.886719 C 49.253906 34.757812 49.234375 34.546875 49.347656 34.398438 Z M 46.105469 41.441406 C 46.550781 39.421875 47.332031 37.53125 48.378906 35.828125 C 48.507812 35.621094 48.789062 35.585938 48.960938 35.757812 L 58.039062 44.886719 C 58.222656 45.074219 58.222656 45.378906 58.039062 45.566406 L 54.601562 49.023438 C 54.269531 49.359375 53.730469 49.359375 53.398438 49.023438 L 46.207031 41.785156 C 46.113281 41.695312 46.078125 41.566406 46.105469 41.441406 Z M 48.164062 54.816406 C 47.160156 53.097656 46.429688 51.203125 46.023438 49.1875 C 46 49.0625 46.039062 48.933594 46.128906 48.847656 L 48.429688 46.53125 C 48.757812 46.199219 49.300781 46.199219 49.632812 46.53125 L 52.746094 49.664062 C 53.078125 50 53.078125 50.542969 52.746094 50.875 L 48.753906 54.894531 C 48.578125 55.070312 48.289062 55.03125 48.164062 54.816406 Z M 52.941406 60.222656 C 51.480469 59.109375 50.1875 57.78125 49.113281 56.285156 C 49.007812 56.136719 49.027344 55.929688 49.15625 55.800781 L 58.679688 46.21875 C 58.863281 46.03125 59.167969 46.03125 59.355469 46.21875 L 62.730469 49.617188 C 63.066406 49.953125 63.066406 50.492188 62.730469 50.828125 L 53.429688 60.1875 C 53.300781 60.320312 53.089844 60.335938 52.941406 60.222656 Z M 60.3125 63.402344 C 60.222656 63.496094 60.09375 63.535156 59.96875 63.507812 C 57.964844 63.054688 56.085938 62.273438 54.386719 61.21875 C 54.183594 61.09375 54.148438 60.804688 54.320312 60.632812 L 68.699219 46.167969 C 68.882812 45.976562 69.1875 45.976562 69.375 46.167969 L 73.070312 49.886719 C 73.257812 50.074219 73.257812 50.378906 73.070312 50.566406 Z M 73.605469 61.222656 C 71.9375 62.257812 70.085938 63.03125 68.117188 63.484375 C 67.992188 63.511719 67.863281 63.472656 67.773438 63.382812 L 65.308594 60.902344 C 64.976562 60.570312 64.976562 60.027344 65.308594 59.695312 L 68.421875 56.558594 C 68.753906 56.226562 69.292969 56.226562 69.625 56.558594 L 73.675781 60.636719 C 73.847656 60.808594 73.8125 61.09375 73.605469 61.222656 Z M 78.917969 56.238281 C 77.835938 57.761719 76.519531 59.113281 75.035156 60.242188 C 74.886719 60.355469 74.679688 60.335938 74.546875 60.207031 L 70.015625 55.644531 C 69.828125 55.457031 69.828125 55.152344 70.015625 54.964844 L 73.714844 51.246094 C 73.898438 51.058594 74.203125 51.058594 74.390625 51.246094 L 78.875 55.757812 C 79.003906 55.886719 79.023438 56.089844 78.917969 56.238281 Z M 82.003906 49.046875 C 81.609375 51.101562 80.871094 53.035156 79.855469 54.785156 C 79.730469 54.996094 79.441406 55.039062 79.269531 54.863281 L 65.015625 40.511719 C 64.832031 40.324219 64.832031 40.019531 65.015625 39.832031 L 68.71875 36.113281 C 68.902344 35.925781 69.207031 35.925781 69.394531 36.113281 L 81.902344 48.707031 C 81.988281 48.796875 82.027344 48.921875 82.003906 49.046875 Z M 82.003906 49.046875 "/>
</g>
</svg>
